General
Complete name                    : CNBC Titans- Steve Jobs.mp4
Format                           : MPEG-4
Format profile                   : Base Media
Codec ID                         : isom
File size                        : 774 MiB
Duration                         : 43mn 6s
Overall bit rate                 : 2 509 Kbps
Writing application              : Lavf51.12.1

Video
ID                               : 1
Format                           : AVC
Format/Info                      : Advanced Video Codec
Format profile                   : Baseline@L4.0
Format settings, CABAC           : No
Format settings, ReFrames        : 1 frame
Format settings, GOP             : M=1, N=12
Codec ID                         : avc1
Codec ID/Info                    : Advanced Video Coding
Duration                         : 43mn 6s
Bit rate mode                    : Variable
Bit rate                         : 2 352 Kbps
Width                            : 1 280 pixels
Height                           : 720 pixels
Display aspect ratio             : 16:9
Frame rate mode                  : Variable
Frame rate                       : 29.970 fps
Minimum frame rate               : 14.985 fps
Maximum frame rate               : 29.970 fps
Color space                      : YUV
Chroma subsampling               : 4:2:0
Bit depth                        : 8 bits
Scan type                        : Progressive
Bits/(Pixel*Frame)               : 0.085
Stream size                      : 725 MiB (94%)

Audio
ID                               : 2
Format                           : AAC
Format/Info                      : Advanced Audio Codec
Format profile                   : LC
Codec ID                         : 40
Duration                         : 43mn 6s
Bit rate mode                    : Variable
Bit rate                         : 152 Kbps
Channel(s)                       : 2 channels
Channel positions                : Front: L R
Sampling rate                    : 44.1 KHz
Compression mode                 : Lossy
Stream size                      : 46.9 MiB (6%)



Screens: http://imgden.com/13944/CNBC Titans-Steve Jobs_screens.jpg

Alternative screens:http://bayimg.com/laJMaAAdI